<?xml version="1.0" encoding="UTF-8" standalone="no"?>
<!-- Created with Inkscape (http://www.inkscape.org/) -->

<svg
   xmlns:dc="http://purl.org/dc/elements/1.1/"
   xmlns:cc="http://creativecommons.org/ns#"
   xmlns:rdf="http://www.w3.org/1999/02/22-rdf-syntax-ns#"
   xmlns:svg="http://www.w3.org/2000/svg"
   xmlns="http://www.w3.org/2000/svg"
   xmlns:sodipodi="http://sodipodi.sourceforge.net/DTD/sodipodi-0.dtd"
   xmlns:inkscape="http://www.inkscape.org/namespaces/inkscape"
   id="svg2"
   version="1.1"
   inkscape:version="0.91 r13725"
   xml:space="preserve"
   width="353.75003"
   height="353.76254"
   viewBox="0 0 353.75004 353.76254"
   sodipodi:docname="Datalogo.svg"><metadata
     id="metadata8"><rdf:RDF><cc:Work
         rdf:about=""><dc:format>image/svg+xml</dc:format><dc:type
           rdf:resource="http://purl.org/dc/dcmitype/StillImage" /><dc:title></dc:title></cc:Work></rdf:RDF></metadata><defs
     id="defs6" /><sodipodi:namedview
     pagecolor="#ffffff"
     bordercolor="#666666"
     borderopacity="1"
     objecttolerance="10"
     gridtolerance="10"
     guidetolerance="10"
     inkscape:pageopacity="0"
     inkscape:pageshadow="2"
     inkscape:window-width="1920"
     inkscape:window-height="1031"
     id="namedview4"
     showgrid="false"
     fit-margin-top="0"
     fit-margin-left="0"
     fit-margin-right="0"
     fit-margin-bottom="0"
     inkscape:zoom="0.15024315"
     inkscape:cx="2690.6552"
     inkscape:cy="-265.01378"
     inkscape:window-x="0"
     inkscape:window-y="0"
     inkscape:window-maximized="1"
     inkscape:current-layer="g10" /><g
     id="g10"
     inkscape:groupmode="layer"
     inkscape:label="Datalogo"
     transform="matrix(1.25,0,0,-1.25,153.23505,200.52312)"><g
       id="g12"
       transform="matrix(10,0,0,10,-170.20804,-170.22154)"><path
         d="M 5.262,18.86 C 5.27,26.423 11.383,32.536 18.863,32.564 26.43,32.536 32.543,26.423 32.562,18.86 32.543,11.376 26.43,5.263 18.863,5.263 11.383,5.263 5.27,11.376 5.262,18.86 Z"
         style="fill:none;stroke:#000000;stroke-width:1;stroke-linecap:butt;stroke-linejoin:miter;stroke-miterlimit:3.8599999;stroke-dasharray:none;stroke-opacity:1"
         id="path14"
         inkscape:connector-curvature="0" /><path
         d="m 7.453,20.013 c 0.141,-0.004 0.235,0.012 0.332,0.07 0.18,0.106 0.297,0.293 0.324,0.539 0.059,0.457 -0.234,0.781 -0.761,0.848 -0.52,0.062 -0.883,-0.184 -0.938,-0.633 -0.047,-0.406 0.152,-0.703 0.524,-0.77 l 0.039,0.329 c -0.207,0.043 -0.309,0.191 -0.282,0.398 0.032,0.258 0.258,0.383 0.614,0.34 C 7.66,21.091 7.855,20.907 7.824,20.646 7.812,20.528 7.758,20.439 7.672,20.384 7.625,20.353 7.582,20.341 7.492,20.333 l -0.039,-0.32"
         style="fill:#000000;fill-opacity:1;fill-rule:nonzero;stroke:none"
         id="path16"
         inkscape:connector-curvature="0" /><path
         d="m 7.129,18.735 -0.742,-0.011 0.004,-0.34 1.64,0.035 -0.008,0.336 -0.613,-0.012 -0.012,0.649 0.614,0.011 -0.004,0.34 -1.641,-0.035 0.004,-0.336 0.746,0.016 0.012,-0.653"
         style="fill:#000000;fill-opacity:1;fill-rule:nonzero;stroke:none"
         id="path18"
         inkscape:connector-curvature="0" /><path
         d="m 6.871,16.997 -0.312,-0.156 0.058,-0.344 1.531,0.824 -0.058,0.368 -1.719,0.316 0.055,-0.34 0.347,-0.058 0.098,-0.61 z M 7.133,17.134 7.066,17.56 7.734,17.45 7.133,17.134"
         style="fill:#000000;fill-opacity:1;fill-rule:nonzero;stroke:none"
         id="path20"
         inkscape:connector-curvature="0" /><path
         d="M 8.387,16.185 8.301,16.513 6.711,16.087 7,14.997 7.273,15.071 7.07,15.833 8.387,16.185"
         style="fill:#000000;fill-opacity:1;fill-rule:nonzero;stroke:none"
         id="path22"
         inkscape:connector-curvature="0" /><path
         d="m 8.426,14.814 -1.059,-0.77 0.133,-0.309 1.289,0.231 -1.176,-0.5 0.129,-0.309 1.512,0.641 -0.199,0.465 -1.313,-0.242 1.082,0.781 -0.195,0.465 -1.508,-0.641 0.129,-0.312 1.176,0.5"
         style="fill:#000000;fill-opacity:1;fill-rule:nonzero;stroke:none"
         id="path24"
         inkscape:connector-curvature="0" /><path
         d="m 8.836,12.931 0.441,-0.653 0.235,0.157 -0.442,0.652 0.309,0.211 0.476,-0.707 0.231,0.156 -0.664,0.988 -1.36,-0.921 0.688,-1.016 0.23,0.156 -0.496,0.738 0.352,0.239"
         style="fill:#000000;fill-opacity:1;fill-rule:nonzero;stroke:none"
         id="path26"
         inkscape:connector-curvature="0" /><path
         d="m 9.695,11.567 0.243,-0.3 c 0.093,-0.114 0.089,-0.2 -0.02,-0.285 C 9.906,10.974 9.891,10.958 9.867,10.939 9.832,10.915 9.801,10.888 9.781,10.872 9.66,10.778 9.629,10.739 9.594,10.657 l 0.23,-0.285 0.047,0.043 c -0.012,0.059 0.004,0.094 0.059,0.137 0.371,0.312 0.382,0.336 0.32,0.555 0.172,-0.098 0.336,-0.086 0.492,0.039 0.102,0.082 0.164,0.195 0.18,0.304 0.012,0.106 -0.024,0.211 -0.113,0.321 l -0.555,0.683 -1.277,-1.031 0.211,-0.262 0.507,0.406 z m 0.219,0.18 0.336,0.266 0.254,-0.317 c 0.062,-0.074 0.082,-0.109 0.078,-0.164 0,-0.054 -0.031,-0.105 -0.09,-0.152 -0.062,-0.051 -0.125,-0.074 -0.176,-0.063 -0.046,0.008 -0.086,0.036 -0.144,0.11 l -0.258,0.32"
         style="fill:#000000;fill-opacity:1;fill-rule:nonzero;stroke:none"
         id="path28"
         inkscape:connector-curvature="0" /><path
         d="m 11.836,10.091 c 0.102,0.113 0.144,0.207 0.144,0.328 0,0.164 -0.089,0.336 -0.265,0.492 -0.293,0.266 -0.582,0.281 -0.797,0.043 -0.172,-0.187 -0.16,-0.363 0.047,-0.633 l 0.137,-0.187 C 11.238,9.95 11.262,9.849 11.172,9.751 11.078,9.65 10.93,9.673 10.777,9.81 c -0.168,0.152 -0.199,0.308 -0.089,0.445 l -0.243,0.223 c -0.222,-0.274 -0.172,-0.575 0.141,-0.856 0.312,-0.285 0.629,-0.305 0.852,-0.058 0.171,0.191 0.167,0.378 -0.02,0.625 l -0.156,0.207 c -0.145,0.199 -0.164,0.277 -0.086,0.367 0.082,0.094 0.219,0.078 0.347,-0.039 0.157,-0.145 0.184,-0.289 0.082,-0.422 l 0.231,-0.211"
         style="fill:#000000;fill-opacity:1;fill-rule:nonzero;stroke:none"
         id="path30"
         inkscape:connector-curvature="0" /><path
         d="m 14.023,9.036 0.434,-0.203 0.117,0.258 -1.195,0.551 -0.117,-0.258 0.453,-0.207 -0.57,-1.238 0.304,-0.141 0.574,1.238"
         style="fill:#000000;fill-opacity:1;fill-rule:nonzero;stroke:none"
         id="path32"
         inkscape:connector-curvature="0" /><path
         d="m 14.887,7.966 0.746,-0.262 0.09,0.27 -0.746,0.258 0.125,0.351 L 15.906,8.302 16,8.571 14.871,8.962 14.332,7.403 15.496,6.997 15.59,7.267 14.746,7.56 14.887,7.966"
         style="fill:#000000;fill-opacity:1;fill-rule:nonzero;stroke:none"
         id="path34"
         inkscape:connector-curvature="0" /><path
         d="m 16.348,7.314 0.195,0.144 0.406,-0.801 0.395,-0.07 -0.551,1.039 0.762,0.582 -0.391,0.067 -0.75,-0.598 0.121,0.707 -0.332,0.058 -0.277,-1.609 0.332,-0.055 0.09,0.536"
         style="fill:#000000;fill-opacity:1;fill-rule:nonzero;stroke:none"
         id="path36"
         inkscape:connector-curvature="0" /><path
         d="M 18.613,6.528 18.949,6.517 19,8.157 18.66,8.169 18.629,7.052 18.012,8.189 17.664,8.196 17.617,6.556 17.953,6.548 17.988,7.681 18.613,6.528"
         style="fill:#000000;fill-opacity:1;fill-rule:nonzero;stroke:none"
         id="path38"
         inkscape:connector-curvature="0" /><path
         d="M 19.727,8.138 19.391,8.11 19.504,6.474 19.844,6.497 19.727,8.138"
         style="fill:#000000;fill-opacity:1;fill-rule:nonzero;stroke:none"
         id="path40"
         inkscape:connector-curvature="0" /><path
         d="M 21.305,7.915 C 21.281,8.06 21.23,8.153 21.137,8.228 21.008,8.325 20.82,8.36 20.586,8.317 20.203,8.251 20.012,8.032 20.066,7.72 20.105,7.47 20.254,7.372 20.59,7.364 L 20.824,7.36 C 21.051,7.357 21.145,7.31 21.164,7.181 21.191,7.044 21.082,6.942 20.879,6.907 20.656,6.868 20.512,6.942 20.473,7.11 L 20.148,7.056 c 0.082,-0.34 0.348,-0.489 0.758,-0.418 0.418,0.074 0.625,0.308 0.571,0.637 -0.043,0.253 -0.196,0.363 -0.504,0.371 L 20.715,7.65 c -0.246,0.003 -0.32,0.039 -0.34,0.156 -0.023,0.121 0.074,0.219 0.242,0.246 0.211,0.035 0.344,-0.031 0.379,-0.192 l 0.309,0.055"
         style="fill:#000000;fill-opacity:1;fill-rule:nonzero;stroke:none"
         id="path42"
         inkscape:connector-curvature="0" /><path
         d="m 22.07,7.439 0.106,0.222 0.734,-0.523 0.383,0.125 -0.977,0.66 0.403,0.875 -0.375,-0.121 -0.387,-0.883 -0.227,0.684 -0.32,-0.106 0.512,-1.558 0.32,0.105 -0.172,0.52"
         style="fill:#000000;fill-opacity:1;fill-rule:nonzero;stroke:none"
         id="path44"
         inkscape:connector-curvature="0" /><path
         d="m 24.43,8.157 0.242,-0.25 0.312,0.153 -1.23,1.226 -0.336,-0.164 0.195,-1.734 0.313,0.152 -0.047,0.344 0.551,0.273 z M 24.223,8.368 23.84,8.181 23.75,8.853 24.223,8.368"
         style="fill:#000000;fill-opacity:1;fill-rule:nonzero;stroke:none"
         id="path46"
         inkscape:connector-curvature="0" /><path
         d="m 26.863,10.267 0.477,-0.575 0.262,0.215 -1.051,1.266 -0.262,-0.219 0.395,-0.472 -0.5,-0.415 -0.395,0.473 -0.258,-0.219 1.051,-1.261 0.258,0.218 -0.477,0.571 0.5,0.418"
         style="fill:#000000;fill-opacity:1;fill-rule:nonzero;stroke:none"
         id="path48"
         inkscape:connector-curvature="0" /><path
         d="m 26.859,12.142 -0.164,-0.184 0.203,-0.183 0.164,0.183 -0.203,0.184 z m 0.282,0.308 -0.168,-0.183 0.203,-0.184 0.168,0.184 -0.203,0.183 z m 0.078,-0.523 c -0.157,-0.168 -0.227,-0.36 -0.207,-0.563 0.019,-0.214 0.133,-0.429 0.312,-0.593 0.184,-0.164 0.41,-0.258 0.621,-0.254 0.211,0.004 0.391,0.09 0.543,0.261 0.16,0.172 0.227,0.36 0.211,0.567 -0.019,0.207 -0.137,0.433 -0.308,0.586 -0.188,0.172 -0.414,0.265 -0.629,0.261 -0.211,-0.003 -0.387,-0.089 -0.543,-0.265 z m 0.211,-0.192 c 0.187,0.207 0.472,0.188 0.734,-0.05 0.246,-0.227 0.293,-0.512 0.113,-0.711 -0.183,-0.203 -0.472,-0.184 -0.726,0.047 -0.254,0.23 -0.301,0.515 -0.121,0.714"
         style="fill:#000000;fill-opacity:1;fill-rule:nonzero;stroke:none"
         id="path50"
         inkscape:connector-curvature="0" /><path
         d="m 29.195,13.396 -0.328,-0.575 0.242,-0.14 0.188,0.328 c 0.078,-0.055 0.113,-0.102 0.141,-0.176 0.046,-0.117 0.035,-0.258 -0.032,-0.367 -0.136,-0.238 -0.441,-0.289 -0.734,-0.121 -0.309,0.176 -0.406,0.433 -0.266,0.683 0.063,0.102 0.137,0.168 0.235,0.204 0.058,0.019 0.101,0.023 0.191,0.003 l 0.16,0.278 c -0.316,0.133 -0.637,0 -0.836,-0.344 -0.238,-0.41 -0.094,-0.867 0.352,-1.121 0.433,-0.25 0.91,-0.148 1.133,0.238 0.109,0.192 0.113,0.36 0.015,0.563 l 0.207,-0.071 0.102,0.172 -0.77,0.446"
         style="fill:#000000;fill-opacity:1;fill-rule:nonzero;stroke:none"
         id="path52"
         inkscape:connector-curvature="0" /><path
         d="m 29.598,14.985 c -0.137,0.063 -0.243,0.075 -0.36,0.04 -0.152,-0.051 -0.289,-0.188 -0.39,-0.407 -0.164,-0.355 -0.09,-0.64 0.199,-0.773 0.23,-0.11 0.398,-0.043 0.594,0.234 l 0.14,0.188 c 0.129,0.187 0.223,0.238 0.344,0.179 0.125,-0.054 0.148,-0.207 0.063,-0.39 -0.098,-0.211 -0.239,-0.285 -0.403,-0.223 l -0.137,-0.297 c 0.325,-0.129 0.602,0.008 0.778,0.387 0.176,0.387 0.101,0.695 -0.203,0.836 -0.235,0.109 -0.411,0.047 -0.59,-0.203 l -0.156,-0.215 c -0.141,-0.199 -0.215,-0.242 -0.325,-0.191 -0.113,0.05 -0.136,0.187 -0.062,0.343 0.086,0.192 0.219,0.266 0.375,0.203 l 0.133,0.289"
         style="fill:#000000;fill-opacity:1;fill-rule:nonzero;stroke:none"
         id="path54"
         inkscape:connector-curvature="0" /><path
         d="m 30.379,15.501 -0.121,0.211 0.844,0.313 0.113,0.386 -1.102,-0.433 -0.492,0.824 -0.113,-0.379 0.512,-0.816 -0.692,0.199 -0.094,-0.324 1.575,-0.457 0.093,0.324 -0.523,0.152"
         style="fill:#000000;fill-opacity:1;fill-rule:nonzero;stroke:none"
         id="path56"
         inkscape:connector-curvature="0" /><path
         d="m 29.719,17.63 c -0.028,-0.227 0.023,-0.422 0.156,-0.578 0.141,-0.164 0.355,-0.274 0.598,-0.305 0.246,-0.027 0.484,0.028 0.656,0.153 0.168,0.121 0.262,0.296 0.289,0.527 0.031,0.234 -0.02,0.426 -0.156,0.582 -0.133,0.16 -0.36,0.273 -0.59,0.301 -0.254,0.031 -0.488,-0.024 -0.66,-0.149 -0.172,-0.125 -0.266,-0.297 -0.293,-0.531 z m 0.285,-0.031 c 0.031,0.273 0.277,0.422 0.629,0.379 0.332,-0.043 0.535,-0.246 0.5,-0.516 -0.031,-0.27 -0.278,-0.422 -0.617,-0.379 -0.344,0.039 -0.547,0.246 -0.512,0.516"
         style="fill:#000000;fill-opacity:1;fill-rule:nonzero;stroke:none"
         id="path58"
         inkscape:connector-curvature="0" /><path
         d="m 29.91,18.946 0.008,-0.336 1.641,0.032 -0.024,1.125 -0.281,-0.008 0.016,-0.785 -1.36,-0.028"
         style="fill:#000000;fill-opacity:1;fill-rule:nonzero;stroke:none"
         id="path60"
         inkscape:connector-curvature="0" /><path
         d="m 31.055,21.126 0.308,0.16 -0.054,0.344 -1.532,-0.824 0.059,-0.371 1.715,-0.313 -0.055,0.34 -0.344,0.055 -0.097,0.609 z m -0.266,-0.137 0.07,-0.422 -0.668,0.106 0.598,0.316"
         style="fill:#000000;fill-opacity:1;fill-rule:nonzero;stroke:none"
         id="path62"
         inkscape:connector-curvature="0" /><path
         d="M 7.762,24.798 8.215,24.349 7.922,23.775 8.508,24.067 8.969,23.607 8.863,24.239 9.438,24.532 8.793,24.634 8.68,25.271 8.387,24.692 7.762,24.798 Z"
         style="fill:none;stroke:#231f20;stroke-width:0.112196;stroke-linecap:butt;stroke-linejoin:miter;stroke-miterlimit:10;stroke-dasharray:none;stroke-opacity:1"
         id="path64"
         inkscape:connector-curvature="0" /><path
         d="m 8.387,24.689 0.289,0.578 0.117,-0.637 0.641,-0.102 -0.575,-0.289 0.11,-0.632 -0.461,0.457 -0.582,-0.289 0.289,0.57 -0.453,0.449 0.625,-0.105"
         style="fill:#231f20;fill-opacity:1;fill-rule:nonzero;stroke:none"
         id="path66"
         inkscape:connector-curvature="0" /><path
         d="m 11.496,27.071 0.492,0.414 c 0.196,0.161 0.278,0.305 0.278,0.477 0.004,0.203 -0.086,0.418 -0.25,0.613 -0.161,0.196 -0.356,0.321 -0.555,0.36 -0.172,0.031 -0.328,-0.028 -0.52,-0.188 l -0.496,-0.41 1.051,-1.266 z m 0.078,0.434 -0.687,0.832 0.234,0.191 c 0.195,0.164 0.406,0.11 0.637,-0.171 0.23,-0.278 0.246,-0.493 0.051,-0.657 l -0.235,-0.195"
         style="fill:#000000;fill-opacity:1;fill-rule:nonzero;stroke:none"
         id="path68"
         inkscape:connector-curvature="0" /><path
         d="m 13.586,28.892 0.25,-0.239 0.305,0.168 -1.282,1.157 -0.328,-0.18 0.281,-1.707 0.301,0.164 -0.062,0.344 0.535,0.293 z m -0.219,0.199 -0.371,-0.203 -0.121,0.66 0.492,-0.457"
         style="fill:#000000;fill-opacity:1;fill-rule:nonzero;stroke:none"
         id="path70"
         inkscape:connector-curvature="0" /><path
         d="m 14.48,30.439 0.446,0.171 -0.102,0.262 -1.222,-0.472 0.101,-0.262 0.461,0.179 0.492,-1.265 0.313,0.121 -0.489,1.266"
         style="fill:#000000;fill-opacity:1;fill-rule:nonzero;stroke:none"
         id="path72"
         inkscape:connector-curvature="0" /><path
         d="m 16.484,29.931 0.176,-0.297 0.336,0.078 -0.91,1.465 -0.363,-0.082 -0.203,-1.719 0.332,0.074 0.035,0.348 0.597,0.133 z m -0.152,0.254 -0.414,-0.094 0.066,0.668 0.348,-0.574"
         style="fill:#000000;fill-opacity:1;fill-rule:nonzero;stroke:none"
         id="path74"
         inkscape:connector-curvature="0" /><path
         d="m 17.832,31.181 0.48,0.035 -0.019,0.281 -1.313,-0.094 0.02,-0.281 0.496,0.035 0.094,-1.359 0.34,0.027 -0.098,1.356"
         style="fill:#000000;fill-opacity:1;fill-rule:nonzero;stroke:none"
         id="path76"
         inkscape:connector-curvature="0" /><path
         d="m 19.227,30.634 0.785,-0.055 0.019,0.281 -0.785,0.055 0.027,0.371 0.848,-0.058 0.02,0.281 -1.184,0.082 -0.117,-1.641 1.226,-0.086 0.02,0.282 -0.887,0.062 0.028,0.426"
         style="fill:#000000;fill-opacity:1;fill-rule:nonzero;stroke:none"
         id="path78"
         inkscape:connector-curvature="0" /><path
         d="m 20.871,30.286 0.203,0.129 0.364,-0.82 0.39,-0.086 -0.496,1.062 0.789,0.543 -0.387,0.086 -0.781,-0.554 0.16,0.695 -0.328,0.074 -0.363,-1.59 0.328,-0.074 0.121,0.535"
         style="fill:#000000;fill-opacity:1;fill-rule:nonzero;stroke:none"
         id="path80"
         inkscape:connector-curvature="0" /><path
         d="m 23.133,28.939 0.312,-0.125 0.606,1.523 -0.313,0.125 -0.41,-1.039 -0.195,1.281 -0.321,0.125 -0.605,-1.523 0.313,-0.125 0.418,1.054 0.195,-1.296"
         style="fill:#000000;fill-opacity:1;fill-rule:nonzero;stroke:none"
         id="path82"
         inkscape:connector-curvature="0" /><path
         d="m 25,29.849 -0.293,0.168 -0.82,-1.426 0.293,-0.168 0.82,1.426"
         style="fill:#000000;fill-opacity:1;fill-rule:nonzero;stroke:none"
         id="path84"
         inkscape:connector-curvature="0" /><path
         d="m 25.195,28.509 0.239,0.043 0.011,-0.902 0.325,-0.239 -0.036,1.184 0.946,0.183 -0.325,0.239 -0.941,-0.207 0.426,0.582 -0.274,0.199 -0.968,-1.328 0.273,-0.196 0.324,0.442"
         style="fill:#000000;fill-opacity:1;fill-rule:nonzero;stroke:none"
         id="path86"
         inkscape:connector-curvature="0" /><path
         d="m 29.41,25.497 -0.625,-0.144 -0.336,0.554 -0.062,-0.656 -0.641,-0.148 0.598,-0.246 -0.059,-0.649 0.43,0.496 0.609,-0.242 -0.34,0.555 0.426,0.48 z"
         style="fill:none;stroke:#231f20;stroke-width:0.113061;stroke-linecap:butt;stroke-linejoin:miter;stroke-miterlimit:10;stroke-dasharray:none;stroke-opacity:1"
         id="path88"
         inkscape:connector-curvature="0" /><path
         d="m 28.988,25.021 0.34,-0.559 -0.609,0.242 -0.43,-0.496 0.059,0.649 -0.602,0.246 0.645,0.148 0.058,0.656 0.34,-0.554 0.625,0.148 -0.426,-0.48"
         style="fill:#231f20;fill-opacity:1;fill-rule:nonzero;stroke:none"
         id="path90"
         inkscape:connector-curvature="0" /><path
         d="M 18.852,29.357 C 13.133,29.349 8.523,24.743 8.551,19.056 8.523,13.403 13.133,8.798 18.852,8.755 c 5.617,0.043 10.222,4.648 10.199,10.301 0.023,5.687 -4.582,10.293 -10.199,10.301 z m -2.801,-0.829 0,-2.699 -1.699,0 0,-1.597 1.699,0 0,-2.204 -6.574,0 c 0.097,0.414 0.433,1.395 0.847,2.102 l 2.125,0 0,1.699 -0.898,0 c 1.304,1.36 2.918,2.285 4.5,2.699 z m 2.722,-1.375 c 4.536,-0.046 8.204,-3.718 8.204,-8.199 0,-4.527 -3.668,-8.191 -8.204,-8.199 l 0,16.398 z m -9.347,-5.375 2.222,0 c -0.324,-0.593 -0.433,-1.343 -0.5,-1.796 l 5.125,0 0,-2 -5.125,0 c 0.051,-0.575 0.227,-1.571 0.5,-2 l -2.199,0 C 8.91,17.81 8.797,19.997 9.426,21.778 Z m 4.625,-4.148 2.222,0 0,-5.602 C 16.227,11.282 14.766,9.97 13.074,11.13 c -1.562,0.953 -2.953,3.008 -3.5,4.5 l 2.278,0 c 1.027,-2.172 2.168,-2.68 2.199,-2.699 l 0,4.699 z"
         style="fill:#000000;fill-opacity:1;fill-rule:nonzero;stroke:none"
         id="path92"
         inkscape:connector-curvature="0" /></g></g></svg>